<svg width="270" height="70" viewBox="0 0 270 70" fill="none" xmlns="http://www.w3.org/2000/svg">
<path d="M16.5507 68.3049C16.673 68.8486 16.3293 68.6331 15.3947 67.9251C13.0029 65.6726 13.2376 64.3853 12.9629 63.9972C13.5096 64.1213 14.8401 64.5128 14.8401 64.5128C14.948 65.8775 16.5507 68.3049 16.5507 68.3049Z" fill="#DD3F6C"/>
<path d="M18.1198 62.3247C17.9029 63.2909 18.1149 63.9792 16.3097 63.9792C14.5045 63.9792 12.4427 62.6747 11.4404 62.0632C10.9182 61.937 10.023 59.8215 10.3195 59.6945C10.8105 59.4845 12.7304 60.5072 15.0157 61.0169C16.78 61.4101 18.1198 61.2663 18.1198 62.3247Z" fill="#DD3F6C"/>
<path d="M20.6022 55.2858C20.485 55.8072 20.2919 58.0514 19.2027 58.3729C18.5835 58.5552 17.7942 59.1014 16.8131 59.4023C16.5175 59.4933 15.5992 59.4728 15.1956 59.4522C14.8631 59.4355 13.8819 59.4728 12.7006 59.2204C11.7882 59.0255 10.7655 58.6173 9.7736 58.1302C8.24039 57.3765 7.34808 55.4069 7.34173 55.3612C7.33485 55.3117 9.27563 56.8232 11.3273 57.7395C13.1979 58.5749 15.196 58.8214 15.1932 58.7937C15.1449 58.3155 15.251 57.8221 15.1321 57.8221C13.3269 57.8221 10.9795 56.6049 9.97722 55.9929C8.63916 55.6198 5.88463 52.7368 7.00515 51.839C7.42473 51.5028 13.8401 54.5799 16.1758 54.4675C17.7412 54.3925 19.3742 53.3886 20.1439 53.5793C20.5849 53.6883 20.4441 54.5552 20.6022 55.2858Z" fill="#DD3F6C"/>
<path d="M22.4698 39.9521C22.3641 40.7447 22.7374 45.2083 21.8066 45.9841C21.1591 46.524 20.8149 47.7174 20.9782 48.378C21.1617 49.1203 20.3612 51.0635 18.841 51.8495C18.383 52.0863 16.3031 51.6789 15.6778 51.626C15.3937 51.6017 17.3744 52.9271 17.2115 53.1212C16.9931 53.3815 14.5777 53.164 13.7565 52.8684C12.3426 52.36 7.55651 50.9252 6.01955 49.6535C3.64374 47.6876 4.07864 42.1924 4.0688 42.0729C4.05812 41.9447 5.48036 43.9579 8.96169 45.6253C12.6122 47.3737 18.6677 49.5763 19.0548 48.1977C19.392 46.9964 15.5966 46.4825 14.2031 46.2478C12.2549 45.92 7.55904 43.3941 6.00595 41.7978C5.14105 41.5234 4.11179 40.1428 2.6731 38.9777C2.17946 38.5779 0.312488 32.425 1.40059 30.9566C1.6823 30.5764 3.37101 32.12 5.82973 33.4112C9.04563 35.0999 13.3532 36.7591 15.2725 37.1856C17.6508 37.7141 21.0747 37.2876 22.2674 37.7846C22.9508 38.0694 22.5212 38.7205 22.4698 39.9521Z" fill="#DD3F6C"/>
<path d="M16.223 26.3194C16.0061 27.2853 16.5999 35.0153 16.4737 35.6922C16.4293 35.9299 8.8582 33.5423 7.8559 32.9305C7.33369 32.8046 0.500571 29.6159 0.345878 26.2722C0.324167 25.8028 -0.161269 23.0645 0.0556925 22.219C0.244348 21.484 1.99309 20.6209 3.78834 20.1501C5.32955 19.7459 6.90503 19.6652 7.55715 19.8107C7.82617 19.8707 12.254 21.0114 13.4462 21.0244C14.1508 21.032 14.8427 21.1056 15.4169 20.8133C16.7077 20.1563 17.8966 19.2624 18.19 19.3786C18.19 19.3786 16.3626 25.9143 16.223 26.3194Z" fill="#DD3F6C"/>
<path d="M41.0406 13.3855C41.0406 13.3855 44.5477 13.5855 46.1303 13.9615C46.1303 13.9615 47.0828 13.9848 48.2927 14.2685C48.3163 14.2741 48.4914 13.6775 48.3965 12.8693C48.3196 12.2134 48.0137 11.439 47.7128 10.5657C47.3491 9.50981 46.531 8.519 45.9409 7.45282C45.0384 5.82325 43.6192 4.62143 42.4557 3.8799C41.0455 2.98071 39.704 2.03154 38.9901 1.5005C38.9901 1.5005 36.2026 0.834547 36.2441 0.850789C36.2872 0.867736 37.5598 0.0858385 39.1924 0.00512867C40.4466 -0.0568656 41.9003 0.45106 43.2515 1.10121C44.9224 1.90505 46.7611 3.31113 47.9103 4.86307C48.5073 5.66954 49.0241 6.42839 49.3185 7.1885C49.5894 7.88862 49.6561 8.603 49.7848 9.05951C50.4617 11.4641 49.5108 14.745 49.5975 14.7906C50.4075 15.2162 51.1922 15.6157 51.3775 16.7679C51.3959 16.8835 51.6997 16.7779 51.8357 16.815C51.8389 16.8159 51.8267 14.8174 52.2014 14.5699C53.6011 13.6454 58.2896 13.0109 62.5001 13.1877C65.1716 13.2999 68.6616 13.0724 71.1495 13.4993C73.0297 13.822 74.9861 14.159 76.233 14.6005C78.0343 15.2381 78.7445 15.9599 78.8776 16.0487C78.9921 16.1252 81.6566 19.8008 82.3461 24.8918C82.7012 27.5127 82.3461 30.7494 81.9218 33.6025C81.7475 34.7768 81.629 36.1096 81.5833 37.1506C81.5829 37.1521 84.1771 36.4702 86.9988 35.8087C92.5503 34.5071 97.642 30.4407 97.6412 30.5689C97.6388 31.124 97.8624 34.5265 97.0841 37.3489C96.8646 38.1454 96.6777 38.952 96.2554 39.5705C95.8449 40.1714 95.2023 40.5899 94.7295 40.9785C94.7295 40.9785 93.3998 42.3999 91.6059 43.6071C90.1781 44.5682 88.4014 45.298 87.1589 45.7578C84.0512 46.908 81.0112 47.1335 80.8316 47.2148C80.7962 47.2307 80.2981 48.4501 81.0666 48.7854C81.2413 48.8617 81.9043 48.6169 82.7847 48.4802C83.9893 48.2937 85.6036 47.6809 87.1857 47.3263C88.0752 47.1272 90.7324 45.8324 92.5817 44.6893C93.9793 43.8259 94.7425 42.8316 94.8724 42.8899C95.0304 42.9607 95.1986 43.3614 95.2112 43.8418C95.2243 44.3301 94.949 45.0243 94.852 45.715C94.6008 47.5082 94.0074 49.5235 94.0139 49.4657C94.0522 49.1224 94.0412 50.9437 88.8619 52.4891C87.5812 52.8714 86.9247 53.1241 84.9581 53.454C84.4747 53.5353 82.0745 53.6158 82.0122 53.6238C81.7108 53.6632 83.1089 52.3952 83.2457 52.3759C83.5039 52.3399 80.4956 52.3625 80.4956 52.3625C80.3168 52.3063 79.3337 51.8486 78.876 51.2999C78.468 50.8112 78.2505 50.1225 78.145 50.0969C77.9947 50.0609 78.5425 47.1821 78.3951 47.1201C78.0811 46.9876 77.7809 46.7914 77.5256 46.506C76.7673 45.658 76.7441 43.2919 76.6859 42.2544C76.6333 41.3167 76.0538 38.7511 76.9323 37.8892C77.7089 37.1276 80.0004 37.8689 79.9764 37.634C79.9128 37.014 79.9255 36.5901 79.9076 36.492C79.8558 36.2096 78.9509 36.3849 78.7461 36.3835C78.2835 36.3803 78.389 34.3817 77.9719 34.0115C77.7854 33.8458 77.4148 34.1014 77.2206 33.9158C76.0054 32.7537 74.6831 30.2708 73.3942 29.3662C71.4406 27.995 68.8119 28.1008 68.8119 28.1582L68.798 64.7584L60.6866 64.8125L60.6504 28.1298C59.2438 28.2152 58.1381 25.7625 58.1007 26.0503C58.0253 26.6266 58.077 27.6582 58.2831 28.5614C58.5213 29.608 59.0821 30.5159 58.8565 30.8776C58.5784 31.3236 57.2569 31.2953 54.9971 28.7064C54.7141 28.3824 54.3264 28.0227 54.0515 27.5198C53.7094 26.8937 53.4724 26.0994 53.0167 25.5035C52.392 24.6864 52.1277 22.2725 52.0018 21.8286C51.9159 21.5255 51.4227 21.2365 51.3938 21.3352C51.0285 22.5903 51.3344 24.0582 51.5783 25.2014C51.8573 26.5095 52.3044 27.5163 52.6184 28.3912C53.2056 30.029 54.1423 30.7418 53.944 31.009C53.7074 31.328 52.4596 30.8363 51.169 29.193C50.583 28.4468 50.1008 27.3228 49.4802 26.199C49.2619 25.8037 49.2403 27.0701 49.1316 27.498C48.6124 29.5348 48.4886 31.4928 48.5301 32.8192C48.5505 33.461 49.2778 37.5187 49.9522 38.0475C50.3989 38.3982 50.6669 39.0954 50.596 39.1433C50.4393 39.2495 48.9308 38.7501 48.8844 38.7835C48.8164 38.8328 46.992 37.6077 45.3968 35.028C44.597 33.7346 43.9894 31.6858 43.4193 30.1197C42.1092 26.5207 42.6361 22.0373 42.6207 21.8199C42.6064 21.6151 43.295 16.6701 43.1395 16.8065C42.8137 17.0916 42.5046 17.4112 42.2403 17.7791C41.3053 19.0811 41.3998 21.8565 41.3802 22.2887C41.3 24.0477 41.7101 29.0122 42.4529 32.426C43.1888 35.8084 45.8822 38.2748 45.3809 38.8696C45.1675 39.123 42.2619 38.3987 40.6538 34.3806C40.6538 34.3806 39.9162 31.1329 39.7969 30.4658C39.7434 30.1669 39.3754 30.4066 39.3754 30.4066C39.3754 30.4066 39.3993 33.3767 39.3814 35.1447C39.3476 38.4706 39.1602 60.2788 39.2127 64.8204C39.2127 64.8204 31.3109 64.7563 30.9013 64.7471C30.9013 64.7471 31.4997 27.4994 30.6866 28.0956C29.6444 28.8598 28.3607 29.4693 27.5617 29.82C25.5487 30.7037 24.4864 35.0323 22.9285 34.1927C22.1823 33.7905 22.093 27.8471 21.4973 27.7039C20.4633 27.4554 20.1052 29.1679 19.9814 29.4374C18.3041 33.0875 19.0067 36.8413 18.5785 36.5799C18.4245 36.5428 17.4448 32.9126 17.5318 28.9905C17.6015 25.852 18.6205 22.511 19.3187 20.7905C20.7059 17.3724 23.2422 14.8037 23.3813 14.7441C23.8723 14.534 29.6668 12.9956 31.9978 13.1862C33.9865 13.3487 41.0406 13.3855 41.0406 13.3855Z" fill="#DD3F6C"/>
<path d="M98.9589 22.5657C98.7418 23.5317 99.2476 27.7872 97.1189 29.2706C96.1147 29.9703 93.6423 31.3197 90.9436 32.6081C87.9691 34.028 83.5066 35.2854 82.9747 34.9607C83.4805 33.8606 83.7094 30.2443 83.6662 26.5507C83.6194 22.5194 82.0873 18.9241 82.2425 18.8575C82.5035 18.7459 85.2149 18.4128 87.8734 18.548C90.2171 18.6672 92.4801 19.2327 93.5511 19.4716C95.3153 19.8651 98.9589 21.5074 98.9589 22.5657Z" fill="#DD3F6C"/>
<path d="M91.8826 53.6112C91.8012 53.9734 91.8696 55.1022 90.9395 56.0998C89.3891 57.7622 86.5421 58.5397 85.4181 58.6407C84.999 58.6784 84.7914 58.8507 84.2216 58.976C83.6507 59.1018 84.6415 60.1149 84.0428 60.1971C82.624 60.392 79.3193 59.3734 78.9515 57.7588C78.5777 57.1649 78.7296 54.3741 79.0261 54.2471C79.2965 54.1314 80.0576 54.7249 81.316 54.9169C82.3438 55.0737 85.0088 54.8947 86.0493 54.7417C86.8451 54.6252 87.7442 54.5262 88.7241 54.159C90.4235 53.5223 92.1665 52.1567 91.8826 53.6112Z" fill="#DD3F6C"/>
<path d="M88.6085 61.2848C87.8413 62.0112 88.0844 61.8976 86.4811 62.8525C84.9185 63.7826 81.7465 65.424 80.7443 64.812C80.5232 64.7588 80.4295 63.3131 81.165 62.5867C82.1656 61.5983 83.7493 61.5786 84.3203 61.1804C84.4836 61.0664 84.6864 60.2721 85.1608 60.1644C86.6342 59.8295 88.5694 58.5489 89.3338 58.7795C90.0616 58.9987 88.9612 60.4385 88.6085 61.2848Z" fill="#DD3F6C"/>
<path d="M82.9814 68.8477C82.5501 69.2145 81.646 69.6458 81.646 69.6458C81.4111 69.2912 84.9345 66.1362 84.0997 65.1775C84.7944 65.0514 85.9147 64.5522 85.9147 64.5522C85.7966 65.0983 85.2766 66.0913 84.6645 66.8718C83.8117 67.9595 82.9814 68.8477 82.9814 68.8477Z" fill="#DD3F6C"/>
<path d="M125.43 27.1114H119.761V44.012H116.634V27.1114H110.965V24.2946H125.43V27.1114ZM205.972 27.1114H200.303V44.012H197.175V27.1114H191.507V24.2946H205.972V27.1114Z" fill="#C04165"/>
<path d="M145.95 44.012H135.003C134.247 44.012 133.596 43.7437 133.049 43.2072C132.527 42.6438 132.267 41.9732 132.267 41.1952V32.7449C132.267 31.9669 132.527 31.3097 133.049 30.7732C133.596 30.2098 134.247 29.9281 135.003 29.9281H143.213C143.969 29.9281 144.608 30.2098 145.129 30.7732C145.676 31.3097 145.95 31.9669 145.95 32.7449V35.5617L143.213 38.3784H135.394L137.74 35.9641H143.213V32.3425H135.003V41.5976H145.95V44.012ZM163.15 44.012H157.677C156.921 44.012 156.269 43.7437 155.722 43.2072C155.201 42.6438 154.94 41.9732 154.94 41.1952V32.3425H151.031L153.376 29.9281H154.94V27.1114L157.677 24.2946V29.9281H163.15V32.3425H157.677V41.5976H163.15V44.012ZM184.656 41.1952C184.656 41.9732 184.382 42.6438 183.835 43.2072C183.313 43.7437 182.675 44.012 181.919 44.012H173.709C172.953 44.012 172.302 43.7437 171.754 43.2072C171.233 42.6438 170.972 41.9732 170.972 41.1952V32.7449C170.972 31.9669 171.233 31.3097 171.754 30.7732C172.302 30.2098 172.953 29.9281 173.709 29.9281H181.919C182.675 29.9281 183.313 30.2098 183.835 30.7732C184.382 31.3097 184.656 31.9669 184.656 32.7449V41.1952ZM181.919 41.5976V32.3425H173.709V41.5976H181.919ZM226.492 44.012H215.545C214.789 44.012 214.138 43.7437 213.59 43.2072C213.069 42.6438 212.808 41.9732 212.808 41.1952V32.7449C212.808 31.9669 213.069 31.3097 213.59 30.7732C214.138 30.2098 214.789 29.9281 215.545 29.9281H223.755C224.511 29.9281 225.149 30.2098 225.671 30.7732C226.218 31.3097 226.492 31.9669 226.492 32.7449V35.5617L223.755 38.3784H215.936L218.282 35.9641H223.755V32.3425H215.545V41.5976H226.492V44.012ZM246.429 29.9281L244.044 32.3425H237.437V41.5976H245.647V44.012H237.437C236.681 44.012 236.029 43.7437 235.482 43.2072C234.961 42.6438 234.7 41.9732 234.7 41.1952V32.7449C234.7 31.9669 234.961 31.3097 235.482 30.7732C236.029 30.2098 236.681 29.9281 237.437 29.9281H246.429ZM267.153 44.012H264.417V32.3425H256.207V44.012H253.47V23.4898L256.207 20.6731V31.9401L258.162 29.9281H264.417C265.173 29.9281 265.811 30.2098 266.332 30.7732C266.88 31.3097 267.153 31.9669 267.153 32.7449V44.012Z" fill="white"/>
<path d="M117.905 51.6441V56.5868H117.197V53.4331C117.197 53.3039 117.2 53.1686 117.206 53.0273C117.217 52.886 117.23 52.7477 117.242 52.6123H117.215L115.647 56.5868H114.984L113.461 52.6123H113.434C113.446 52.7477 113.452 52.886 113.452 53.0273C113.458 53.1686 113.461 53.3132 113.461 53.4607V56.5868H112.753V51.6441H113.801L115.315 55.6186L116.856 51.6441H117.905ZM121.256 51.5611C121.841 51.5611 122.275 51.6931 122.555 51.9576C122.836 52.2221 122.976 52.6429 122.976 53.221V56.5868H122.403L122.251 55.886H122.215C122.078 56.0641 121.934 56.215 121.785 56.3378C121.641 56.4548 121.474 56.5407 121.283 56.596C121.098 56.6514 120.871 56.679 120.602 56.679C120.315 56.679 120.056 56.6266 119.823 56.5223C119.596 56.4179 119.417 56.2578 119.285 56.0428C119.154 55.8214 119.088 55.5448 119.088 55.2128C119.088 54.7211 119.276 54.3431 119.652 54.0786C120.029 53.8082 120.608 53.6607 121.39 53.6359L122.206 53.6083V53.3132C122.206 52.9011 122.119 52.6153 121.946 52.4556C121.773 52.2959 121.528 52.2158 121.211 52.2158C120.96 52.2158 120.721 52.2556 120.495 52.3357C120.268 52.4095 120.056 52.4954 119.858 52.5939L119.617 51.9853C119.825 51.8683 120.073 51.7702 120.36 51.6902C120.647 51.6043 120.945 51.5611 121.256 51.5611ZM121.489 54.1984C120.892 54.2232 120.477 54.3213 120.244 54.4935C120.017 54.6658 119.903 54.9085 119.903 55.222C119.903 55.4987 119.984 55.7016 120.145 55.8307C120.313 55.9598 120.524 56.0243 120.781 56.0243C121.187 56.0243 121.525 55.9107 121.794 55.6831C122.062 55.4496 122.197 55.0929 122.197 54.6134V54.1708L121.489 54.1984ZM127.389 51.6441V52.3265H125.248V56.5868H124.459V51.6441H127.389ZM130.154 51.5611C130.739 51.5611 131.172 51.6931 131.453 51.9576C131.734 52.2221 131.874 52.6429 131.874 53.221V56.5868H131.301L131.149 55.886H131.113C130.975 56.0641 130.832 56.215 130.683 56.3378C130.54 56.4548 130.372 56.5407 130.181 56.596C129.996 56.6514 129.769 56.679 129.5 56.679C129.214 56.679 128.954 56.6266 128.721 56.5223C128.494 56.4179 128.314 56.2578 128.183 56.0428C128.052 55.8214 127.986 55.5448 127.986 55.2128C127.986 54.7211 128.174 54.3431 128.551 54.0786C128.927 53.8082 129.506 53.6607 130.289 53.6359L131.104 53.6083V53.3132C131.104 52.9011 131.017 52.6153 130.844 52.4556C130.671 52.2959 130.426 52.2158 130.109 52.2158C129.859 52.2158 129.62 52.2556 129.393 52.3357C129.166 52.4095 128.954 52.4954 128.757 52.5939L128.515 51.9853C128.724 51.8683 128.972 51.7702 129.258 51.6902C129.545 51.6043 129.844 51.5611 130.154 51.5611ZM130.387 54.1984C129.79 54.2232 129.375 54.3213 129.142 54.4935C128.915 54.6658 128.801 54.9085 128.801 55.222C128.801 55.4987 128.882 55.7016 129.043 55.8307C129.21 55.9598 129.422 56.0243 129.679 56.0243C130.085 56.0243 130.423 55.9107 130.692 55.6831C130.961 55.4496 131.095 55.0929 131.095 54.6134V54.1708L130.387 54.1984ZM134.621 51.5519C134.985 51.5519 135.302 51.6042 135.571 51.7086C135.839 51.8071 136.048 51.9547 136.198 52.1513C136.347 52.342 136.422 52.5754 136.422 52.8521C136.422 53.1535 136.341 53.3932 136.18 53.5714C136.019 53.7437 135.797 53.8694 135.517 53.9495V53.9863C135.708 54.0417 135.884 54.1184 136.045 54.2169C136.207 54.3154 136.335 54.4445 136.431 54.6042C136.532 54.7639 136.583 54.9701 136.583 55.222C136.583 55.4924 136.508 55.7384 136.359 55.9598C136.216 56.1811 135.992 56.3563 135.687 56.4854C135.388 56.6145 135.003 56.679 134.531 56.679C134.304 56.679 134.086 56.6669 133.877 56.6422C133.674 56.6174 133.489 56.5805 133.322 56.5315C133.161 56.4825 133.017 56.4238 132.892 56.3563V55.6278C133.095 55.7263 133.334 55.8152 133.608 55.8952C133.889 55.9753 134.194 56.0151 134.522 56.0151C134.761 56.0151 134.976 55.9874 135.167 55.9321C135.365 55.8768 135.52 55.7908 135.633 55.6739C135.747 55.5511 135.804 55.3851 135.804 55.1759C135.804 54.9852 135.753 54.8318 135.651 54.7148C135.549 54.592 135.397 54.4998 135.194 54.4382C134.997 54.3766 134.743 54.346 134.433 54.346H133.788V53.682H134.307C134.719 53.682 135.048 53.6267 135.293 53.516C135.544 53.3991 135.669 53.2025 135.669 52.9259C135.669 52.6924 135.573 52.5172 135.382 52.4002C135.197 52.2833 134.928 52.225 134.576 52.225C134.313 52.225 134.08 52.2527 133.877 52.308C133.68 52.3571 133.462 52.4342 133.223 52.5386L132.946 51.8931C133.202 51.7761 133.471 51.6902 133.752 51.6348C134.032 51.5795 134.322 51.5519 134.621 51.5519ZM138.493 54.6595C138.493 54.7148 138.49 54.7949 138.484 54.8993C138.484 54.9978 138.482 55.1051 138.475 55.222C138.469 55.3327 138.464 55.4404 138.458 55.5448C138.451 55.6433 138.446 55.7229 138.44 55.7845L141.011 51.6441H141.979V56.5868H141.244V53.6728C141.244 53.5743 141.244 53.4452 141.244 53.2855C141.25 53.1258 141.256 52.969 141.262 52.8152C141.268 52.6555 141.274 52.5356 141.28 52.4556L138.726 56.5868H137.75V51.6441H138.493V54.6595ZM144.295 51.6441V53.7005H146.902V51.6441H147.691V56.5868H146.902V54.3829H144.295V56.5868H143.507V51.6441H144.295ZM153.845 51.6441H154.705L152.653 54.0232L154.875 56.5868H153.962L151.793 54.0786V56.5868H151.005V51.6441H151.793V54.0417L153.845 51.6441ZM159.747 54.1062C159.747 54.5183 159.693 54.8838 159.586 55.2036C159.484 55.5171 159.335 55.7845 159.138 56.0059C158.947 56.2272 158.711 56.3961 158.43 56.5131C158.155 56.6237 157.848 56.679 157.507 56.679C157.191 56.679 156.898 56.6237 156.629 56.5131C156.361 56.3961 156.128 56.2272 155.931 56.0059C155.733 55.7845 155.578 55.5171 155.465 55.2036C155.357 54.8838 155.303 54.5183 155.303 54.1062C155.303 53.5592 155.393 53.0981 155.572 52.723C155.751 52.342 156.008 52.0528 156.343 51.8562C156.677 51.6533 157.074 51.5519 157.534 51.5519C157.97 51.5519 158.352 51.6533 158.681 51.8562C159.015 52.0528 159.275 52.342 159.46 52.723C159.651 53.0981 159.747 53.5592 159.747 54.1062ZM156.119 54.1062C156.119 54.4935 156.166 54.8318 156.262 55.1206C156.363 55.4035 156.519 55.6215 156.728 55.7753C156.937 55.9292 157.203 56.0059 157.525 56.0059C157.848 56.0059 158.113 55.9292 158.323 55.7753C158.532 55.6215 158.684 55.4035 158.78 55.1206C158.881 54.8318 158.932 54.4935 158.932 54.1062C158.932 53.7126 158.881 53.3777 158.78 53.1011C158.678 52.8244 158.523 52.6123 158.314 52.4648C158.11 52.311 157.845 52.2342 157.516 52.2342C157.026 52.2342 156.671 52.4002 156.45 52.7322C156.229 53.0642 156.119 53.5223 156.119 54.1062ZM166.148 51.6441V56.5868H165.44V53.4331C165.44 53.3039 165.443 53.1686 165.449 53.0273C165.461 52.886 165.473 52.7477 165.485 52.6123H165.458L163.89 56.5868H163.227L161.704 52.6123H161.677C161.689 52.7477 161.695 52.886 161.695 53.0273C161.702 53.1686 161.704 53.3132 161.704 53.4607V56.5868H160.997V51.6441H162.045L163.559 55.6186L165.1 51.6441H166.148ZM171.74 51.6441V56.5868H170.951V52.3357H168.469V56.5868H167.681V51.6441H171.74ZM175.485 53.6728C175.903 53.6728 176.249 53.7252 176.524 53.8296C176.799 53.9339 177.005 54.0907 177.142 54.2999C177.285 54.5028 177.357 54.761 177.357 55.0745C177.357 55.3817 177.289 55.6492 177.151 55.8768C177.02 56.1044 176.814 56.2796 176.533 56.4024C176.252 56.5252 175.891 56.5868 175.449 56.5868H173.272V51.6441H174.06V53.6728H175.485ZM176.569 55.1206C176.569 54.8192 176.464 54.6163 176.255 54.512C176.052 54.4013 175.766 54.346 175.395 54.346H174.06V55.9321H175.413C175.748 55.9321 176.022 55.8705 176.237 55.7477C176.458 55.6248 176.569 55.4157 176.569 55.1206ZM184.827 54.1062C184.827 54.6532 184.74 55.1206 184.567 55.5079C184.394 55.8889 184.149 56.1811 183.833 56.384C183.516 56.5805 183.14 56.679 182.704 56.679C182.298 56.679 181.942 56.5931 181.638 56.4208C181.333 56.2427 181.091 55.9845 180.912 55.6462C180.733 55.3021 180.628 54.8808 180.598 54.3829H179.38V56.5868H178.591V51.6441H179.38V53.7005H180.607C180.649 53.2331 180.76 52.8429 180.939 52.5293C181.124 52.2095 181.366 51.9668 181.664 51.8008C181.969 51.6348 182.321 51.5519 182.722 51.5519C183.134 51.5519 183.498 51.6533 183.815 51.8562C184.131 52.0528 184.379 52.342 184.558 52.723C184.737 53.0981 184.827 53.5592 184.827 54.1062ZM181.405 54.1062C181.405 54.5183 181.449 54.8653 181.539 55.1483C181.635 55.4312 181.778 55.6462 181.969 55.7938C182.16 55.935 182.408 56.0059 182.713 56.0059C183.017 56.0059 183.265 55.935 183.456 55.7938C183.647 55.6462 183.788 55.4312 183.877 55.1483C183.967 54.8653 184.012 54.5183 184.012 54.1062C184.012 53.6942 183.967 53.3501 183.877 53.0734C183.788 52.7968 183.647 52.5876 183.456 52.4463C183.265 52.3051 183.017 52.2342 182.713 52.2342C182.408 52.2342 182.16 52.3051 181.969 52.4463C181.778 52.5876 181.635 52.7968 181.539 53.0734C181.449 53.3501 181.405 53.6942 181.405 54.1062ZM189.308 52.3265H187.74V56.5868H186.961V52.3265H185.411V51.6441H189.308V52.3265ZM192.021 51.5519C192.433 51.5519 192.786 51.6441 193.079 51.8285C193.377 52.0129 193.604 52.2741 193.759 52.6123C193.921 52.9443 194.001 53.3345 194.001 53.7835V54.2722H190.713C190.725 54.8318 190.862 55.2589 191.125 55.554C191.394 55.8428 191.767 55.9874 192.245 55.9874C192.55 55.9874 192.819 55.9598 193.052 55.9044C193.29 55.8428 193.535 55.7569 193.786 55.6462V56.3563C193.541 56.4669 193.299 56.547 193.061 56.596C192.822 56.6514 192.538 56.679 192.209 56.679C191.755 56.679 191.352 56.5839 191 56.3932C190.653 56.2025 190.382 55.9199 190.185 55.5448C189.993 55.1638 189.898 54.6993 189.898 54.1523C189.898 53.6112 189.984 53.1472 190.158 52.7599C190.337 52.3726 190.585 52.0745 190.901 51.8654C191.224 51.6562 191.597 51.5519 192.021 51.5519ZM192.012 52.2158C191.636 52.2158 191.337 52.342 191.116 52.5939C190.901 52.8399 190.773 53.1841 190.731 53.6267H193.177C193.177 53.3438 193.135 53.0981 193.052 52.889C192.968 52.6798 192.839 52.5172 192.666 52.4002C192.499 52.2774 192.281 52.2158 192.012 52.2158ZM197.508 51.5519C198.1 51.5519 198.575 51.7639 198.933 52.1881C199.297 52.6123 199.48 53.2516 199.48 54.1062C199.48 54.6658 199.396 55.139 199.229 55.5263C199.067 55.9074 198.837 56.1966 198.539 56.3932C198.246 56.5839 197.899 56.679 197.5 56.679C197.254 56.679 197.037 56.6451 196.846 56.5776C196.654 56.5101 196.49 56.4238 196.353 56.3194C196.221 56.2087 196.108 56.0889 196.012 55.9598H195.959C195.97 56.0641 195.982 56.1966 195.994 56.3563C196.006 56.516 196.012 56.6543 196.012 56.7713V58.8H195.224V51.6441H195.869L195.976 52.3172H196.012C196.108 52.176 196.221 52.0469 196.353 51.9299C196.49 51.813 196.651 51.7208 196.837 51.6533C197.028 51.5858 197.252 51.5519 197.508 51.5519ZM197.365 52.2342C197.043 52.2342 196.783 52.2988 196.586 52.4279C196.389 52.5507 196.245 52.7385 196.156 52.9904C196.066 53.2423 196.018 53.5622 196.012 53.9495V54.1062C196.012 54.512 196.054 54.8561 196.138 55.139C196.221 55.422 196.362 55.637 196.559 55.7845C196.762 55.9321 197.037 56.0059 197.383 56.0059C197.675 56.0059 197.915 55.9229 198.1 55.7569C198.291 55.5909 198.431 55.3666 198.521 55.0837C198.616 54.7949 198.664 54.4659 198.664 54.097C198.664 53.5316 198.557 53.0797 198.342 52.7414C198.132 52.4032 197.807 52.2342 197.365 52.2342ZM201.524 51.6441V53.7005H204.131V51.6441H204.92V56.5868H204.131V54.3829H201.524V56.5868H200.736V51.6441H201.524ZM210.616 54.1062C210.616 54.5183 210.562 54.8838 210.454 55.2036C210.352 55.5171 210.203 55.7845 210.006 56.0059C209.815 56.2272 209.579 56.3961 209.298 56.5131C209.024 56.6237 208.716 56.679 208.376 56.679C208.059 56.679 207.766 56.6237 207.498 56.5131C207.229 56.3961 206.996 56.2272 206.799 56.0059C206.602 55.7845 206.446 55.5171 206.333 55.2036C206.225 54.8838 206.172 54.5183 206.172 54.1062C206.172 53.5592 206.261 53.0981 206.44 52.723C206.62 52.342 206.876 52.0528 207.211 51.8562C207.545 51.6533 207.942 51.5519 208.403 51.5519C208.838 51.5519 209.221 51.6533 209.549 51.8562C209.884 52.0528 210.144 52.342 210.329 52.723C210.52 53.0981 210.616 53.5592 210.616 54.1062ZM206.987 54.1062C206.987 54.4935 207.035 54.8318 207.13 55.1206C207.232 55.4035 207.387 55.6215 207.596 55.7753C207.805 55.9292 208.071 56.0059 208.394 56.0059C208.716 56.0059 208.982 55.9292 209.191 55.7753C209.4 55.6215 209.552 55.4035 209.648 55.1206C209.749 54.8318 209.8 54.4935 209.8 54.1062C209.8 53.7126 209.749 53.3777 209.648 53.1011C209.546 52.8244 209.391 52.6123 209.182 52.4648C208.979 52.311 208.713 52.2342 208.385 52.2342C207.895 52.2342 207.539 52.4002 207.318 52.7322C207.097 53.0642 206.987 53.5223 206.987 54.1062ZM215.753 49.5969C215.729 49.9041 215.655 50.1623 215.529 50.3715C215.41 50.5807 215.231 50.7374 214.992 50.8418C214.753 50.9462 214.442 50.9986 214.06 50.9986C213.672 50.9986 213.358 50.9462 213.119 50.8418C212.886 50.7374 212.716 50.5836 212.609 50.3807C212.501 50.1716 212.435 49.9104 212.411 49.5969H213.146C213.176 49.9289 213.26 50.1531 213.397 50.2701C213.54 50.3807 213.767 50.436 214.078 50.436C214.353 50.436 214.568 50.3778 214.723 50.2608C214.884 50.138 214.98 49.9167 215.01 49.5969H215.753ZM212.609 54.6595C212.609 54.7148 212.606 54.7949 212.6 54.8993C212.6 54.9978 212.597 55.1051 212.591 55.222C212.585 55.3327 212.579 55.4404 212.573 55.5448C212.567 55.6433 212.561 55.7229 212.555 55.7845L215.126 51.6441H216.094V56.5868H215.359V53.6728C215.359 53.5743 215.359 53.4452 215.359 53.2855C215.365 53.1258 215.371 52.969 215.377 52.8152C215.383 52.6555 215.389 52.5356 215.395 52.4556L212.841 56.5868H211.865V51.6441H212.609V54.6595ZM223.474 51.6441V56.5868H222.686V52.3357H220.204V56.5868H219.416V51.6441H223.474ZM226.861 51.5519C227.273 51.5519 227.626 51.6441 227.918 51.8285C228.217 52.0129 228.444 52.2741 228.599 52.6123C228.76 52.9443 228.841 53.3345 228.841 53.7835V54.2722H225.553C225.565 54.8318 225.702 55.2589 225.965 55.554C226.234 55.8428 226.607 55.9874 227.085 55.9874C227.39 55.9874 227.659 55.9598 227.891 55.9044C228.13 55.8428 228.375 55.7569 228.626 55.6462V56.3563C228.381 56.4669 228.139 56.547 227.9 56.596C227.661 56.6514 227.378 56.679 227.049 56.679C226.595 56.679 226.192 56.5839 225.84 56.3932C225.493 56.2025 225.222 55.9199 225.024 55.5448C224.833 55.1638 224.738 54.6993 224.738 54.1523C224.738 53.6112 224.824 53.1472 224.998 52.7599C225.177 52.3726 225.424 52.0745 225.741 51.8654C226.064 51.6562 226.437 51.5519 226.861 51.5519ZM226.852 52.2158C226.476 52.2158 226.177 52.342 225.956 52.5939C225.741 52.8399 225.613 53.1841 225.571 53.6267H228.017C228.017 53.3438 227.975 53.0981 227.891 52.889C227.808 52.6798 227.679 52.5172 227.506 52.4002C227.339 52.2774 227.121 52.2158 226.852 52.2158ZM232.348 51.5519C232.94 51.5519 233.414 51.7639 233.773 52.1881C234.137 52.6123 234.319 53.2516 234.319 54.1062C234.319 54.6658 234.235 55.139 234.068 55.5263C233.907 55.9074 233.677 56.1966 233.379 56.3932C233.086 56.5839 232.739 56.679 232.339 56.679C232.094 56.679 231.876 56.6451 231.685 56.5776C231.494 56.5101 231.33 56.4238 231.193 56.3194C231.061 56.2087 230.947 56.0889 230.852 55.9598H230.798C230.81 56.0641 230.822 56.1966 230.834 56.3563C230.846 56.516 230.852 56.6543 230.852 56.7713V58.8H230.064V51.6441H230.709L230.816 52.3172H230.852C230.947 52.176 231.061 52.0469 231.193 51.9299C231.33 51.813 231.491 51.7208 231.676 51.6533C231.867 51.5858 232.091 51.5519 232.348 51.5519ZM232.205 52.2342C231.882 52.2342 231.623 52.2988 231.425 52.4279C231.228 52.5507 231.085 52.7385 230.995 52.9904C230.906 53.2423 230.858 53.5622 230.852 53.9495V54.1062C230.852 54.512 230.894 54.8561 230.978 55.139C231.061 55.422 231.201 55.637 231.399 55.7845C231.601 55.9321 231.876 56.0059 232.223 56.0059C232.515 56.0059 232.754 55.9229 232.94 55.7569C233.131 55.5909 233.271 55.3666 233.361 55.0837C233.456 54.7949 233.504 54.4659 233.504 54.097C233.504 53.5316 233.397 53.0797 233.181 52.7414C232.972 52.4032 232.647 52.2342 232.205 52.2342ZM237.43 51.5519C237.842 51.5519 238.195 51.6441 238.487 51.8285C238.786 52.0129 239.013 52.2741 239.168 52.6123C239.33 52.9443 239.41 53.3345 239.41 53.7835V54.2722H236.122C236.134 54.8318 236.271 55.2589 236.534 55.554C236.803 55.8428 237.176 55.9874 237.654 55.9874C237.959 55.9874 238.228 55.9598 238.461 55.9044C238.699 55.8428 238.944 55.7569 239.195 55.6462V56.3563C238.95 56.4669 238.708 56.547 238.469 56.596C238.23 56.6514 237.947 56.679 237.618 56.679C237.164 56.679 236.761 56.5839 236.409 56.3932C236.062 56.2025 235.791 55.9199 235.594 55.5448C235.402 55.1638 235.307 54.6993 235.307 54.1523C235.307 53.6112 235.393 53.1472 235.567 52.7599C235.746 52.3726 235.993 52.0745 236.31 51.8654C236.633 51.6562 237.006 51.5519 237.43 51.5519ZM237.421 52.2158C237.045 52.2158 236.746 52.342 236.525 52.5939C236.31 52.8399 236.182 53.1841 236.14 53.6267H238.586C238.586 53.3438 238.544 53.0981 238.461 52.889C238.377 52.6798 238.248 52.5172 238.075 52.4002C237.908 52.2774 237.69 52.2158 237.421 52.2158ZM243.5 51.5703C243.977 51.6135 244.392 51.7426 244.745 51.9576C245.103 52.1726 245.381 52.4619 245.578 52.8244C245.775 53.187 245.874 53.6175 245.874 54.1154C245.874 54.6134 245.778 55.0468 245.587 55.4157C245.396 55.7783 245.124 56.0675 244.772 56.2825C244.419 56.4917 243.995 56.6174 243.5 56.6606V58.8H242.729V56.6606C242.257 56.6174 241.842 56.4917 241.484 56.2825C241.126 56.0675 240.848 55.7783 240.651 55.4157C240.454 55.0468 240.355 54.6134 240.355 54.1154C240.355 53.6112 240.45 53.1778 240.642 52.8152C240.833 52.4463 241.108 52.1575 241.466 51.9484C241.824 51.7334 242.254 51.6072 242.756 51.5703V49.5784H243.5V51.5703ZM242.756 52.2435C242.392 52.2804 242.093 52.3755 241.86 52.5293C241.627 52.6832 241.454 52.8919 241.341 53.1564C241.233 53.4209 241.179 53.7403 241.179 54.1154C241.179 54.4843 241.233 54.8041 241.341 55.0745C241.454 55.339 241.627 55.5511 241.86 55.7108C242.093 55.8646 242.392 55.9598 242.756 55.9966V52.2435ZM243.5 55.9966C243.858 55.9535 244.15 55.8554 244.378 55.7016C244.611 55.5477 244.781 55.339 244.888 55.0745C245.002 54.8041 245.059 54.4843 245.059 54.1154C245.059 53.7466 245.002 53.4301 244.888 53.1656C244.775 52.9011 244.602 52.6924 244.369 52.5386C244.142 52.3847 243.852 52.2896 243.5 52.2527V55.9966ZM248.979 51.5519C249.391 51.5519 249.744 51.6441 250.036 51.8285C250.335 52.0129 250.562 52.2741 250.717 52.6123C250.878 52.9443 250.959 53.3345 250.959 53.7835V54.2722H247.671C247.683 54.8318 247.821 55.2589 248.083 55.554C248.352 55.8428 248.725 55.9874 249.203 55.9874C249.508 55.9874 249.777 55.9598 250.009 55.9044C250.249 55.8428 250.493 55.7569 250.744 55.6462V56.3563C250.499 56.4669 250.257 56.547 250.018 56.596C249.779 56.6514 249.496 56.679 249.167 56.679C248.713 56.679 248.31 56.5839 247.958 56.3932C247.611 56.2025 247.34 55.9199 247.142 55.5448C246.951 55.1638 246.856 54.6993 246.856 54.1523C246.856 53.6112 246.943 53.1472 247.116 52.7599C247.295 52.3726 247.543 52.0745 247.859 51.8654C248.182 51.6562 248.555 51.5519 248.979 51.5519ZM248.97 52.2158C248.594 52.2158 248.295 52.342 248.074 52.5939C247.859 52.8399 247.731 53.1841 247.689 53.6267H250.135C250.135 53.3438 250.093 53.0981 250.009 52.889C249.926 52.6798 249.797 52.5172 249.624 52.4002C249.457 52.2774 249.239 52.2158 248.97 52.2158ZM254.466 51.5519C255.058 51.5519 255.532 51.7639 255.891 52.1881C256.255 52.6123 256.437 53.2516 256.437 54.1062C256.437 54.6658 256.354 55.139 256.186 55.5263C256.025 55.9074 255.795 56.1966 255.497 56.3932C255.204 56.5839 254.858 56.679 254.457 56.679C254.213 56.679 253.994 56.6451 253.803 56.5776C253.612 56.5101 253.448 56.4238 253.311 56.3194C253.179 56.2087 253.066 56.0889 252.97 55.9598H252.916C252.928 56.0641 252.94 56.1966 252.952 56.3563C252.964 56.516 252.97 56.6543 252.97 56.7713V58.8H252.182V51.6441H252.827L252.934 52.3172H252.97C253.066 52.176 253.179 52.0469 253.311 51.9299C253.448 51.813 253.609 51.7208 253.794 51.6533C253.985 51.5858 254.209 51.5519 254.466 51.5519ZM254.323 52.2342C254 52.2342 253.741 52.2988 253.543 52.4279C253.346 52.5507 253.203 52.7385 253.113 52.9904C253.024 53.2423 252.976 53.5622 252.97 53.9495V54.1062C252.97 54.512 253.012 54.8561 253.096 55.139C253.179 55.422 253.32 55.637 253.517 55.7845C253.72 55.9321 253.994 56.0059 254.341 56.0059C254.634 56.0059 254.872 55.9229 255.058 55.7569C255.249 55.5909 255.389 55.3666 255.479 55.0837C255.574 54.7949 255.622 54.4659 255.622 54.097C255.622 53.5316 255.515 53.0797 255.299 52.7414C255.091 52.4032 254.765 52.2342 254.323 52.2342ZM258.437 54.6595C258.437 54.7148 258.434 54.7949 258.428 54.8993C258.428 54.9978 258.425 55.1051 258.419 55.222C258.413 55.3327 258.408 55.4404 258.401 55.5448C258.395 55.6433 258.39 55.7229 258.384 55.7845L260.955 51.6441H261.922V56.5868H261.188V53.6728C261.188 53.5743 261.188 53.4452 261.188 53.2855C261.194 53.1258 261.2 52.969 261.206 52.8152C261.212 52.6555 261.217 52.5356 261.224 52.4556L258.67 56.5868H257.694V51.6441H258.437V54.6595ZM264.194 54.6595C264.194 54.7148 264.192 54.7949 264.185 54.8993C264.185 54.9978 264.183 55.1051 264.176 55.222C264.17 55.3327 264.165 55.4404 264.159 55.5448C264.152 55.6433 264.147 55.7229 264.141 55.7845L266.712 51.6441H267.68V56.5868H266.945V53.6728C266.945 53.5743 266.945 53.4452 266.945 53.2855C266.951 53.1258 266.957 52.969 266.963 52.8152C266.969 52.6555 266.975 52.5356 266.981 52.4556L264.427 56.5868H263.451V51.6441H264.194V54.6595Z" fill="white"/>
</svg>
